<?xml version="1.0" encoding="UTF-8"?>
<svg id="Layer_2" data-name="Layer 2" xmlns="http://www.w3.org/2000/svg" viewBox="0 0 45.36 67.1">
  <defs>
    <style>
      .cls-1 {
        stroke-width: 1.34px;
      }

      .cls-1, .cls-2, .cls-3, .cls-4 {
        stroke-miterlimit: 10;
      }

      .cls-1, .cls-3 {
        fill: none;
        stroke: #fbb040;
      }

      .cls-2 {
        fill: #fff;
        stroke: #fff;
        stroke-width: 1px;
      }

      .cls-3 {
        stroke-width: 1.57px;
      }

      .cls-5 {
        fill: #fbb040;
      }

      .cls-4 {
        fill: #231f20;
        stroke: #231f20;
        stroke-width: 1.93px;
      }

      .cls-6 {
        fill: #fff200;
      }

      .cls-7 {
        fill: #f9ed32;
      }

      .cls-8 {
        fill: #ffde17;
      }
    </style>
  </defs>
  <g id="Layer_1-2" data-name="Layer 1">
    <path class="cls-1" d="M17.03,57.74l-1.04,5.06c-.71,.14-1.46,.26-2.24,.37-.86,.12-1.68,.22-2.48,.3v3.6"/>
    <line class="cls-1" x1="13.59" y1="67.07" x2="13.75" y2="63.18"/>
    <line class="cls-1" x1="15.98" y1="62.8" x2="17.03" y2="66.55"/>
    <path class="cls-1" d="M26.45,58.37c-.53,1.53-1.6,6.98-1.6,8.18"/>
    <line class="cls-1" x1="27.16" y1="66.55" x2="27.32" y2="62.65"/>
    <line class="cls-1" x1="30.08" y1="62.28" x2="31.12" y2="66.02"/>
    <line class="cls-3" x1="30.6" y1="61.79" x2="25.43" y2="62.53"/>
    <ellipse class="cls-8" cx="19.45" cy="11.92" rx="12.33" ry="11.92"/>
    <polygon class="cls-5" points="15.65 14.67 18.68 18.26 21.84 14.63 15.65 14.67"/>
    <ellipse class="cls-4" cx="13.49" cy="10.49" rx="2.15" ry="1.9"/>
    <ellipse class="cls-4" cx="24.99" cy="10.49" rx="2.26" ry="1.9"/>
    <ellipse class="cls-2" cx="14.24" cy="9.86" rx=".74" ry=".63"/>
    <ellipse class="cls-2" cx="25.76" cy="9.86" rx=".74" ry=".63"/>
    <path class="cls-8" d="M28.57,58.53c8.69-2.94,9.4-13.9,9.47-16.21,.03-1.21,.17-14.74-10.92-18.81-4.28-1.57-10.38-1.79-15.11,.92-5.02,2.87-6.04,7.62-6.74,10.86-1.69,7.84,2.27,13.91,3.38,15.48,1.59,2.26,3.88,5.51,8.73,7.27,.9,.32,6.12,2.21,11.19,.5Z"/>
    <path class="cls-7" d="M11.33,23.73c-2.87-.53-7.57,6.68-9.65,13-2.06,6.27-2.6,14.96,.55,15.91,2.78,.84,7.35-4.71,8.01-5.51,5.81-7.04,4.32-14.85,3.82-17.44-.55-2.89-1.08-5.66-2.73-5.97Z"/>
    <path class="cls-6" d="M30.94,24.06c-2.74,.89-1.95,9.08,.46,15.32,2.39,6.19,7.63,13.69,10.87,13.03,2.87-.59,3.06-7.33,3.08-8.3,.23-8.57-6.12-14.4-8.23-16.33-2.36-2.16-4.61-4.23-6.19-3.72Z"/>
  </g>
</svg>