<?xml version="1.0" encoding="UTF-8"?>
<svg id="Layer_2" data-name="Layer 2" xmlns="http://www.w3.org/2000/svg" viewBox="0 0 77.83 88.01">
  <defs>
    <style>
      .cls-1 {
        stroke-width: 1.37px;
      }

      .cls-1, .cls-2, .cls-3, .cls-4, .cls-5, .cls-6, .cls-7, .cls-8 {
        stroke-miterlimit: 10;
      }

      .cls-1, .cls-3, .cls-4, .cls-5, .cls-6 {
        stroke: #939598;
      }

      .cls-1, .cls-3, .cls-4, .cls-5, .cls-6, .cls-8 {
        fill: #fff;
      }

      .cls-2 {
        fill: #f9ed32;
      }

      .cls-2, .cls-7, .cls-8 {
        stroke: #f9ed32;
      }

      .cls-3 {
        stroke-width: 1.27px;
      }

      .cls-4 {
        stroke-width: 1.33px;
      }

      .cls-5 {
        stroke-width: 1.19px;
      }

      .cls-6 {
        stroke-width: 1.24px;
      }

      .cls-7 {
        fill: none;
      }
    </style>
  </defs>
  <g id="Layer_1-2" data-name="Layer 1">
    <path class="cls-5" d="M47.48,34.9c2.72-4.3,8.83-11.71,13.55-13.27,5.3-1.75,13.3-1.23,15.57,3.4,2.33,4.72-2.51,11.42-3.56,12.87-5.08,7.01-14.16,11.42-20.45,11.77-.22,.02-.43,.02-.63,.02,.38-.95,.64-1.95,.78-3,.01-.05,.02-.11,.02-.16,.08-.55,.11-1.1,.11-1.67,0-3.54-1.39-6.75-3.66-9.13-.18-.2-.38-.4-.59-.59-.22-.21-.45-.4-.69-.59"/>
    <path class="cls-4" d="M49.67,31.29c-.52,1.18-1.1,2.28-1.74,3.26-.08,.12-.15,.24-.23,.35,.05-.14,.11-.27,.18-.4-.74-.59-1.55-1.11-2.42-1.53-.83-.41-1.7-.73-2.61-.96-1.21-.23-2.46-.37-3.76-.39-1.22,.05-2.4,.26-3.51,.61-1.42,.46-2.73,1.14-3.9,2.02-4.9-5.61-8.4-14.61-5.51-22.15C28.29,6.57,34.56,0,40.67,.72c6.27,.73,9.26,8.75,9.91,10.5,2.45,6.57,1.58,14.32-.91,20.07Z"/>
    <path class="cls-6" d="M30.53,35.22c-.44,.41-.84,.85-1.22,1.31-.04,.05-.08,.1-.12,.15-1.77,2.26-2.82,5.09-2.82,8.18,0,.31,.01,.62,.03,.92,.08,1.22,.33,2.39,.72,3.49,.32,.91,.74,1.77,1.24,2.57,0,.01,0,.02,.01,.02,0,0,.01,0,.01,.02-.74,.17-1.53,.3-2.33,.4-.35,.04-.71,.07-1.07,.1-6.32,.47-13.99-1.36-18.81-6.6C2.16,41.42-1.19,33.26,1.71,28.72c2.98-4.62,11.04-3.13,12.8-2.81,6.08,1.13,11.98,4.98,16.02,9.31Z"/>
    <path class="cls-1" d="M29.67,82.69c-5.32,3.88-14.71,6.59-19.21,2.83-4.61-3.85-1.85-12.53-1.24-14.43,2.42-7.56,8.75-14.42,14.86-18.18,.3-.19,.6-.37,.9-.53,.64-.37,1.28-.7,1.92-.99,.24-.11,.48-.22,.72-.32,.24,.27,.48,.53,.74,.77,0,.01,0,.02,.01,.02,0,0,.01,0,.01,.02,.3,.48,.63,.95,.99,1.38,2.17,2.64,5.33,4.43,8.92,4.78,.37,.04,.74,.06,1.12,.06,1.04,7.67-1.83,18.83-9.74,24.59Z"/>
    <path class="cls-3" d="M63.99,85.05c-5.15,1.93-11.42-4.17-12.8-5.49-5.95-5.78-9.3-14.83-9.6-21.6,1.96-.29,3.77-1,5.35-2.05,1.82-1.21,3.32-2.85,4.36-4.78,.25-.47,.47-.95,.66-1.44,.27,.1,.55,.2,.83,.32,.4,.15,.8,.33,1.21,.53,6.56,3.05,13.8,9.87,15.37,18.02,1.15,5.97-.34,14.61-5.38,16.49Z"/>
    <path class="cls-2" d="M49.19,35.72c.83,.89,2.3,2.68,3.09,5.26,.55,1.8,.57,3.37,.57,3.87,0,.57-.03,1.12-.11,1.67,0,.05-.01,.11-.02,.16-.14,1.05-.4,2.05-.78,3-.19,.49-.41,.97-.66,1.44-1.04,1.93-2.54,3.57-4.36,4.78-1.58,1.05-3.39,1.76-5.35,2.05-.64,.1-1.3,.15-1.97,.15-.07,0-.14,0-.21-.01-.38,0-.75-.02-1.12-.06-3.59-.35-6.75-2.14-8.92-4.78-.36-.43-.69-.9-.99-1.38,0-.01-.01-.01-.01-.02-.01,0-.01-.01-.01-.02-.5-.8-.92-1.66-1.24-2.57-.39-1.1-.64-2.27-.72-3.49,.2-3.39,1.25-6.46,2.91-8.95-.04-.05-.08-.1-.12-.15,.04-.05,.08-.1,.12-.15,.38-.46,.78-.9,1.22-1.31,.36-.35,.75-.67,1.15-.97,1.17-.88,2.48-1.56,3.9-2.02,1.11-.35,2.29-.56,3.51-.61,1.3,.02,2.55,.16,3.76,.39,.23,.04,1.38,.35,2.61,.96,2.84,1.4,4.61,3.71,5.4,4.88"/>
    <path class="cls-8" d="M29.31,36.83c-1.66,2.49-2.71,5.56-2.91,8.95-.02-.3-.03-.61-.03-.92,0-3.09,1.05-5.92,2.82-8.18,.04,.05,.08,.1,.12,.15Z"/>
    <path class="cls-7" d="M42.85,32.01c-1.21-.23-2.46-.37-3.76-.39,.18,0,.35,0,.53,0,1.12,0,2.2,.14,3.23,.4Z"/>
  </g>
</svg>