<?xml version="1.0" encoding="UTF-8"?>
<svg id="Layer_2" data-name="Layer 2" xmlns="http://www.w3.org/2000/svg" viewBox="0 0 64.5 80">
  <defs>
    <style>
      .cls-1 {
        stroke-width: .96px;
      }

      .cls-1, .cls-2, .cls-3, .cls-4, .cls-5, .cls-6, .cls-7, .cls-8, .cls-9, .cls-10 {
        stroke-miterlimit: 10;
      }

      .cls-1, .cls-2, .cls-4, .cls-5, .cls-6, .cls-7, .cls-9 {
        stroke: #f9ed32;
      }

      .cls-1, .cls-2, .cls-5 {
        fill: #ffde17;
      }

      .cls-2, .cls-3 {
        stroke-width: 1.1px;
      }

      .cls-3, .cls-4, .cls-6, .cls-7, .cls-8, .cls-9 {
        fill: none;
      }

      .cls-3, .cls-8, .cls-10 {
        stroke: #8dc63f;
      }

      .cls-4 {
        stroke-width: 1.26px;
      }

      .cls-5, .cls-10 {
        stroke-width: .85px;
      }

      .cls-7 {
        stroke-width: .76px;
      }

      .cls-9 {
        stroke-width: 1.08px;
      }

      .cls-10 {
        fill: #39b54a;
      }
    </style>
  </defs>
  <g id="Layer_1-2" data-name="Layer 1">
    <path class="cls-8" d="M24.12,19.03c4.26,10.07,6.6,18.96,7.96,25.67,2.02,10,2.29,17.29,2.46,22.93,.08,2.48,.26,8.36-.38,8.43-1.07,.12-1.21-16.33-9.38-31.93-4.52-8.63-10.31-14.73-14.87-18.76"/>
    <path class="cls-3" d="M47.43,24.53c-3.15,5.84-6.42,12.96-9.15,21.32-1.8,5.49-3.08,10.65-4.01,15.34"/>
    <path class="cls-9" d="M13.32,39.89c1.44-.3-.38-8.72-1.26-9.05-.82-.3-3.99,5.05-2.63,8.5,.12,.3,.25,.53,.34,.68"/>
    <path class="cls-6" d="M.51,25.22c-.25,1.25,8.04,3.39,8.65,2.85,.57-.51-3.12-5.25-6.74-5.65-.32-.03-.57-.03-.74-.02"/>
    <path class="cls-6" d="M2.59,36.02c1,.8,6.7-5.6,6.49-6.39-.19-.75-6.1,.37-8.11,3.41-.17,.26-.29,.49-.36,.65"/>
    <path class="cls-6" d="M7.51,16.22c-1.24,.3,.33,8.72,1.08,9.05,.71,.3,3.44-5.05,2.26-8.5-.1-.3-.22-.53-.3-.68"/>
    <path class="cls-6" d="M20.18,20.8c-.85-.95-7.53,4.42-7.46,5.23,.07,.77,6.08,.64,8.56-2.03,.22-.23,.37-.44,.46-.58"/>
    <ellipse class="cls-1" cx="10.74" cy="27.76" rx="6.49" ry="7.07"/>
    <path class="cls-4" d="M20.6,.62c-1.97,.3,.52,8.72,1.72,9.05,1.13,.3,5.46-5.05,3.59-8.5-.16-.3-.34-.53-.47-.68"/>
    <path class="cls-6" d="M33.18,16.58c.37-1.22-7.7-4.11-8.36-3.62-.62,.46,2.63,5.52,6.2,6.24,.31,.06,.57,.08,.73,.09"/>
    <path class="cls-4" d="M11.48,10.26c-.16,1.99,8.61,1.5,9.2,.41,.55-1.03-3.66-6.48-7.44-5.46-.33,.09-.59,.21-.77,.3"/>
    <path class="cls-6" d="M20.25,23.55c1.23,.36,4.09-7.71,3.6-8.37-.46-.62-5.51,2.65-6.22,6.22-.06,.31-.08,.57-.08,.73"/>
    <path class="cls-4" d="M13.15,20.21c.99,1.73,7.95-3.64,7.82-4.87-.12-1.16-6.68-3.27-9.22-.29-.22,.26-.37,.51-.46,.68"/>
    <circle class="cls-2" cx="22.47" cy="12.92" r="7.15"/>
    <path class="cls-6" d="M63.99,24.37c.37-1.22-7.7-4.11-8.36-3.62-.62,.46,2.63,5.52,6.2,6.24,.31,.06,.57,.08,.73,.09"/>
    <path class="cls-6" d="M51.45,8.85c-1.18,.5,1.73,8.56,2.53,8.75,.75,.18,2.58-5.54,.86-8.75-.15-.28-.3-.49-.4-.62"/>
    <path class="cls-7" d="M60.26,14.92c-.64-.7-5.99,3.41-5.95,4.03,.03,.58,4.72,.4,6.72-1.63,.17-.18,.3-.34,.37-.44"/>
    <path class="cls-6" d="M43.94,14.74c-.57,1.15,6.9,5.35,7.63,4.98,.69-.35-1.67-5.88-5.06-7.19-.3-.11-.54-.18-.71-.21"/>
    <ellipse class="cls-5" cx="52.17" cy="19.73" rx="5.68" ry="8.11"/>
    <path class="cls-10" d="M20.96,68.46c.21,1.26,1.22,6.52,5.78,9.28,2.73,1.65,7.13,2.65,8.43,.95,1.31-1.72-.8-5.84-3.41-8.05-4.18-3.54-9.83-2.39-10.8-2.18Z"/>
    <path class="cls-10" d="M46.69,64.61c-1.28,.04-6.63,.37-9.96,4.53-1.99,2.49-3.56,6.72-2.03,8.24,1.54,1.53,5.89-.04,8.43-2.34,4.06-3.68,3.65-9.43,3.56-10.43Z"/>
    <path class="cls-10" d="M20.96,68.46c.21,1.26,1.22,6.52,5.78,9.28,2.73,1.65,7.13,2.65,8.43,.95,1.31-1.72-.8-5.84-3.41-8.05-4.18-3.54-9.83-2.39-10.8-2.18Z"/>
  </g>
</svg>