<?xml version="1.0" encoding="UTF-8"?>
<svg id="Layer_2" data-name="Layer 2" xmlns="http://www.w3.org/2000/svg" viewBox="0 0 56.61 49.47">
  <defs>
    <style>
      .cls-1 {
        stroke: #231f20;
        stroke-linecap: round;
        stroke-linejoin: round;
      }

      .cls-1, .cls-2, .cls-3, .cls-4, .cls-5 {
        fill: none;
      }

      .cls-6 {
        fill: #ffde17;
        stroke: #fff200;
      }

      .cls-6, .cls-7, .cls-2, .cls-3, .cls-4, .cls-8, .cls-5 {
        stroke-miterlimit: 10;
      }

      .cls-6, .cls-7, .cls-8 {
        stroke-width: .5px;
      }

      .cls-7 {
        fill: #be1e2d;
        stroke: #ef4136;
      }

      .cls-2 {
        stroke-width: .47px;
      }

      .cls-2, .cls-3, .cls-4, .cls-8, .cls-5 {
        stroke: #603913;
      }

      .cls-3 {
        stroke-width: .54px;
      }

      .cls-4 {
        stroke-width: .49px;
      }

      .cls-8 {
        fill: #754c29;
      }

      .cls-5 {
        stroke-width: .52px;
      }
    </style>
  </defs>
  <g id="Layer_1-2" data-name="Layer 1">
    <path class="cls-8" d="M46.04,10.99c.72-1.26,5.65-1.36,6.83,1.33,.71,1.63-.07,4.02-1.4,4.53-2.01,.77-5.14-2.78-5.5-5.21-.03-.18-.05-.43,.08-.65Z"/>
    <path class="cls-7" d="M9.27,30.99c-1.37,.49-5.17-2.65-4.3-5.46,.53-1.7,2.68-3,4.02-2.52,2.03,.73,2.08,5.46,.77,7.54-.1,.16-.24,.36-.49,.44Z"/>
    <path class="cls-6" d="M20.51,6.84c-1.13-.92-.39-5.8,2.46-6.51,1.73-.43,3.95,.75,4.23,2.15,.42,2.11-3.61,4.6-6.06,4.55-.19,0-.43-.02-.63-.19Z"/>
    <line class="cls-3" x1="20.51" y1="6.84" x2="25.88" y2=".62"/>
    <polyline class="cls-5" points="22.5 .5 22.97 3.64 27.23 2.99"/>
    <polyline class="cls-2" points="21.19 1.57 21.96 5.08 25.88 5.08"/>
    <line class="cls-3" x1="9.27" y1="30.99" x2="6.7" y2="23.18"/>
    <polyline class="cls-4" points="5.1 25.61 8.01 26.86 9.43 23.24"/>
    <polyline class="cls-2" points="5.1 27.69 8.5 28.83 10.52 25.48"/>
    <line class="cls-3" x1="46.04" y1="10.99" x2="53.07" y2="15.23"/>
    <polyline class="cls-4" points="52.7 12.35 49.68 13.3 50.97 16.97"/>
    <polyline class="cls-2" points="51.35 10.77 48.02 12.12 48.68 15.98"/>
    <path class="cls-1" d="M.5,15.07c.64-1.13,5.28-9.06,11.47-8.81,3.26,.13,6.25,2.52,8.98,4.69,4.04,3.22,4.06,4.89,6.82,5.81,4.09,1.36,8.33-.88,9.37-1.47,4.73-2.7,4.66-6.47,8.51-7.83,2.77-.98,5.71-.06,8.01,1.09"/>
    <path class="cls-8" d="M50.98,30.87c-1.34-.56-2.02-5.45,.52-6.94,1.54-.9,4-.4,4.67,.86,1.01,1.91-2.15,5.43-4.53,6.08-.18,.05-.42,.1-.66,0Z"/>
    <path class="cls-6" d="M18.86,42.52c.91-1.13,5.8-.43,6.52,2.42,.44,1.73-.72,3.96-2.12,4.25-2.11,.44-4.62-3.57-4.59-6.03,0-.19,.02-.43,.19-.63Z"/>
    <line class="cls-3" x1="18.86" y1="42.52" x2="25.11" y2="47.84"/>
    <polyline class="cls-5" points="25.21 44.47 22.08 44.96 22.75 49.22"/>
    <polyline class="cls-2" points="24.14 43.16 20.64 43.96 20.66 47.87"/>
    <line class="cls-3" x1="50.98" y1="30.87" x2="54.37" y2="23.38"/>
    <polyline class="cls-4" points="51.55 24.09 52.85 26.98 56.34 25.27"/>
    <polyline class="cls-2" points="50.14 25.62 51.87 28.76 55.63 27.65"/>
    <path class="cls-1" d="M3.27,46.7c-.03-.84-.19-7.66,4.52-10.99,2.54-1.8,5.69-2.01,7.56-2.13,.83-.06,3.41-.21,5.86,.49,7.39,2.1,6.97,10.01,13.89,12.13,2.93,.9,6.73,.62,9.47-1.39,1.86-1.36,2.72-3.13,3.16-4.04,.52-1.1,2.31-4.86,.63-8.59-.98-2.18-3.55-5.25-6.19-4.67-3.04,.67-4.86,5.91-3.16,8.08,.3,.38,.89,.91,2.15,1.14"/>
  </g>
</svg>