<?xml version="1.0" encoding="UTF-8"?>
<svg id="Layer_2" data-name="Layer 2" xmlns="http://www.w3.org/2000/svg" viewBox="0 0 35.66 69.37">
  <defs>
    <style>
      .cls-1 {
        fill: #f69;
      }

      .cls-1, .cls-2, .cls-3, .cls-4 {
        stroke: #231f20;
        stroke-miterlimit: 10;
      }

      .cls-1, .cls-3, .cls-4 {
        stroke-width: .22px;
      }

      .cls-2 {
        stroke-width: .22px;
      }

      .cls-2, .cls-3 {
        fill: #ed3895;
      }

      .cls-4 {
        fill: #ffd5aa;
      }
    </style>
  </defs>
  <g id="Layer_1-2" data-name="Layer 1">
    <path class="cls-1" d="M35.54,46.73c-3.56,.03-8.1,.09-13.93,.21h-.01c-.86,.02-1.75,.03-2.69,.05-.49,.01-1,.02-1.51,.02l-2.63,.05c-.49,0-.98,0-1.49,.02-3.38,.05-7.19,.1-11.47,.15-.32-1.22-.65-2.68-.94-4.36-.06-.34-.12-.69-.17-1.05,.15,0,.3,0,.46,.01,3.81,.15,4.71,2.29,8.13,2.28,2.22-.01,2.12-.92,7.23-2.28,2.83-.75,4.25-1.12,5.76-1.01,3.77,.28,4.7,2.55,7.39,2.53,1.3-.01,3.18-.56,5.45-3.19,.19,2.61,.32,4.83,.42,6.57Z"/>
    <path class="cls-3" d="M35.12,40.16c-2.27,2.63-4.15,3.18-5.45,3.19-2.69,.02-3.62-2.25-7.39-2.53-1.51-.11-2.93,.26-5.76,1.01-5.11,1.36-5.01,2.27-7.23,2.28-3.42,.01-4.32-2.13-8.13-2.28-.16-.01-.31-.01-.46-.01C-.1,36.66-.35,29.74,1.69,22.1,2.21,20.14,7.44,.49,17.22,.12c7.54-.29,13.35,11.03,13.9,12.13,1.15,2.3,2.19,5.26,3.54,21.72,.18,2.23,.33,4.31,.46,6.19Z"/>
    <path class="cls-2" d="M31.6,56.36c-1.08,.58-3.35-.82-4.05-2.65-.7-1.87,.19-4.28,2.28-5.94,.99,1.09,2.39,3.02,2.52,5.56,.05,.79,.14,2.55-.75,3.03Z"/>
    <path class="cls-2" d="M34.63,62.68c-.02,.77-.41,1.88-1.14,2.02-.79,.15-1.63-.89-1.89-1.77-.49-1.63,.92-3.08,1.01-3.16,.09,.05,2.05,1.12,2.02,2.91Z"/>
    <path class="cls-4" d="M19.74,69.12c-1.4,.5-2.91-.47-3.18-.63-1.87-1.2-2.54-3.61-3.03-13.89-.14-2.76-.21-5.76-.25-7.52,.51-.01,1-.02,1.49-.02,.91-.02,1.79-.03,2.63-.05,.51,0,1.02,0,1.51-.02,.89,.03,1.79,.02,2.69-.05h.01c.3,1.42,.68,3.52,.9,6.09,.21,2.53,1.23,14.64-2.77,16.09Z"/>
  </g>
</svg>