<?xml version="1.0" encoding="UTF-8"?>
<svg id="Layer_2" data-name="Layer 2" xmlns="http://www.w3.org/2000/svg" viewBox="0 0 60.51 73.19">
  <defs>
    <style>
      .cls-1, .cls-2, .cls-3, .cls-4 {
        stroke: #231f20;
      }

      .cls-1, .cls-2, .cls-4 {
        stroke-miterlimit: 10;
      }

      .cls-1, .cls-3 {
        fill: none;
        opacity: .61;
      }

      .cls-2 {
        fill: #603913;
      }

      .cls-3 {
        stroke-linecap: round;
        stroke-linejoin: round;
      }

      .cls-4 {
        fill: #be1e2d;
      }
    </style>
  </defs>
  <g id="Layer_1-2" data-name="Layer 1">
    <path class="cls-4" d="M27.44,72.68c.04-4.42,.08-8.84,.13-13.26-1.86,.14-3.72,.28-5.57,.42-2.52-.2-5.04-.39-7.56-.59,2.65-1.84,5.3-3.68,7.95-5.52-1.98-1.31-3.96-2.61-5.94-3.92-3.96-1.22-7.92-2.44-11.87-3.66,2.32-2.02,4.63-4.04,6.95-6.06-3.37-3.16-6.74-6.32-10.11-9.47,3.8,.38,7.6,.76,11.41,1.14,2.96-.18,5.93-.37,8.89-.55,.97-3.76,2-7.58,3.11-11.45,1.79-6.28,3.66-12.35,5.58-18.19,1.98,5.71,3.94,11.52,5.87,17.43,1.3,3.99,2.56,7.95,3.79,11.87,3.34-.08,6.68-.17,10.02-.25,3.12-.72,6.23-1.43,9.35-2.15-2.27,3.58-4.55,7.16-6.82,10.74l5.18,5.18c-4.01,1.99-8.01,3.98-12.02,5.97-1.51,1.04-3.02,2.08-4.53,3.13,2.78,1.73,5.56,3.45,8.34,5.18-2.99,.34-5.98,.67-8.97,1.01-2.12-.08-4.24-.17-6.35-.25,.04,4.34,.08,8.67,.13,13.01-2.32,.08-4.63,.17-6.95,.25Z"/>
    <line class="cls-3" x1="30.43" y1="3.08" x2="30.43" y2="72.68"/>
    <line class="cls-3" x1="18.18" y1="32.13" x2="30.71" y2="44.23"/>
    <line class="cls-3" x1="42.68" y1="31.52" x2="30.76" y2="44.23"/>
    <polyline class="cls-3" points="52.63 39.83 30.43 51.96 11.54 40.72"/>
    <path class="cls-1" d="M30.76,58.59l-8.35-4.23,8.35,4.23Z"/>
    <line class="cls-1" x1="41.26" y1="54.11" x2="30.76" y2="58.59"/>
    <rect class="cls-2" x="27.57" y="59.41" width="6.82" height="13.01"/>
  </g>
</svg>