<?xml version="1.0" encoding="UTF-8"?>
<svg id="Layer_2" data-name="Layer 2" xmlns="http://www.w3.org/2000/svg" viewBox="0 0 56.09 49.32">
  <defs>
    <style>
      .cls-1 {
        fill: #fbb040;
        stroke: #f7941d;
        stroke-width: 1.66px;
      }

      .cls-1, .cls-2, .cls-3, .cls-4, .cls-5, .cls-6, .cls-7, .cls-8, .cls-9 {
        stroke-linecap: round;
        stroke-linejoin: round;
      }

      .cls-10, .cls-11, .cls-12, .cls-13, .cls-14, .cls-15, .cls-16 {
        stroke-miterlimit: 10;
      }

      .cls-10, .cls-5, .cls-7 {
        fill: #231f20;
        stroke: #231f20;
      }

      .cls-10, .cls-15 {
        stroke-width: .26px;
      }

      .cls-2 {
        stroke-width: .33px;
      }

      .cls-2, .cls-3, .cls-4, .cls-11, .cls-12, .cls-6, .cls-13, .cls-15, .cls-8, .cls-16, .cls-9 {
        fill: #be1e2d;
        stroke: #ed1c24;
      }

      .cls-3 {
        stroke-width: .56px;
      }

      .cls-4, .cls-5 {
        stroke-width: .5px;
      }

      .cls-11 {
        stroke-width: .24px;
      }

      .cls-12 {
        stroke-width: .22px;
      }

      .cls-6, .cls-7 {
        stroke-width: .31px;
      }

      .cls-13 {
        stroke-width: .19px;
      }

      .cls-14 {
        fill: #006838;
        stroke: #006838;
        stroke-width: .24px;
      }

      .cls-8 {
        stroke-width: .52px;
      }

      .cls-16 {
        stroke-width: .23px;
      }

      .cls-9 {
        stroke-width: .54px;
      }
    </style>
  </defs>
  <g id="Layer_1-2" data-name="Layer 1">
    <path class="cls-14" d="M55.94,15.9c-1.24-.75-5.17-2.91-10-1.94-.75,.15-7.08,1.42-7.62,5.36-.38,2.78,2.28,5.81,4.94,6.54,4.03,1.1,9.66-2.63,12.68-9.96Z"/>
    <path class="cls-14" d="M.12,14.05c.01,1.44,.25,5.93,3.61,9.53,.52,.56,4.94,5.28,8.57,3.66,2.57-1.14,3.74-4.99,2.96-7.64C14.07,15.59,7.95,12.76,.12,14.05Z"/>
    <path class="cls-1" d="M4.89,22.5c4.32,8.66,8.63,17.32,12.95,25.99,7.08-.05,14.17-.09,21.25-.14,3.76-8.45,7.53-16.9,11.29-25.35-15.16-.17-30.33-.33-45.49-.5Z"/>
    <path class="cls-9" d="M15.6,22.82c-.14,.39-.27,.78-.43,1.14-.76,1.81-1.78,3.15-2.56,4.03-.31-.27-2.77-3.82-2.07-7.84,.1-.56,.25-1.09,.44-1.58,.86-2.24,2.53-3.72,3.78-3.9h0s.07-.01,.11-.02c.15,.6,.61,1.07,1.2,1.21,.08,.03,.17,.04,.26,.04,.44,1.59,.11,4.43-.74,6.92Z"/>
    <path class="cls-4" d="M8.58,19.87c-1.67,.73-3.21,.98-4.28,1.08-.02-.37,.64-4.32,3.69-6.57,2.79-2.07,6.24-1.78,6.77-.44,.6,1.44-2.89,4.51-6.18,5.93Z"/>
    <path class="cls-4" d="M15.73,12.79s-.07,.03-.1,.06c-.45,.26-.75,.72-.8,1.24h-.04c-.34,.06-.78,.06-1.33,.06-1.27-.01-2.85-.02-4.33-.48h0c-1.13-.34-2.21-.97-3.03-2.05-1.61-2.13-1.26-4.7-1.15-5.41,1.09-.19,3.61-.46,6.09,.88,.56,.3,1.09,.67,1.59,1.07,.01,.02,.03,.03,.04,.04,1.54,1.28,2.67,2.97,2.98,4.2,.04,.15,.07,.28,.07,.41Z"/>
    <path class="cls-3" d="M16.97,8.35c.09,1.85-.11,3.46-.56,4.18,0,.02-.02,.04-.04,.06-.03-.01-.07,0-.11,0-.23,.01-.45,.09-.64,.19-.04,.03-.07,.04-.1,.07-1.06-.43-2.62-2.84-3.05-5.64-.07-.43-.11-.85-.12-1.28-.05-2.95,1.38-5.02,1.85-5.65,.67,.87,1.55,2.24,2.12,4.14,.38,1.26,.58,2.66,.65,3.93Z"/>
    <path class="cls-8" d="M22.71,9.25c-.25,.55-.54,1.04-.86,1.48-1.2,1.67-2.79,2.63-3.93,2.72-.09-.17-.22-.33-.38-.46-.27-.23-.61-.37-.99-.38-.01,0-.02-.03-.01-.05-.2-.8,.06-2.09,.6-3.51,.59-1.57,1.52-3.3,2.56-4.67,1.17-1.55,2.43-2.59,3.35-3.24,.19,.35,1.39,4.41-.34,8.1Z"/>
    <path class="cls-4" d="M26.6,15.09c-.76,.14-1.78,.27-2.97,.27-.58,0-1.42,0-2.5-.18-.77-.13-1.82-.38-3.01-.9,0-.03,0-.07,0-.11-.02-.26-.09-.5-.21-.71-.09-.17-.22-.33-.38-.46,.07-.15,.18-.32,.32-.49,.66-.78,1.96-1.56,3.28-1.74,.08-.01,.16-.02,.27-.03,1.37-.08,2.42,.64,2.86,.95,1.61,1.11,2.19,2.86,2.34,3.39Z"/>
    <path class="cls-4" d="M27.6,21.87c-.33,.16-4.12,1.03-7.32-.81-.05-.03-.1-.06-.16-.09-2.3-1.38-3.45-3.66-3.37-5.09,.48-.07,.87-.35,1.12-.74,.11-.17,.19-.36,.23-.57,1.69,0,4.8,1.74,6.88,3.76,1.31,1.27,2.13,2.59,2.63,3.55Z"/>
    <path class="cls-4" d="M20.41,23.07c0,1.82-.37,3.33-.72,4.35-.3-.11-2.86-1.76-4.08-4.59-.2-.44-.36-.91-.46-1.4-.53-2.3,.05-4.44,.94-5.56,.08,.03,.17,.04,.26,.04,.07,0,.15,.01,.23,0,.06,0,.12,0,.18-.03,.48-.07,.87-.35,1.12-.74,1.11,.56,2.08,3.21,2.41,5.92,.09,.68,.13,1.35,.13,2.01Z"/>
    <path class="cls-5" d="M18.12,14.17s0,.08,0,.11c0,.1,0,.2-.02,.29-.04,.21-.12,.41-.23,.57-.25,.39-.64,.67-1.12,.74-.06,.02-.12,.03-.18,.03-.08,0-.16,0-.23,0-.09,0-.18-.02-.26-.04-.59-.14-1.06-.61-1.2-1.21-.03-.09-.04-.19-.05-.29s0-.19,.01-.28c.05-.52,.35-.98,.8-1.24,.03-.02,.06-.03,.1-.06,.19-.09,.41-.15,.64-.17,.04,0,.08,0,.11,0,.02-.01,.04,0,.05,0,.38,0,.72,.15,.99,.38,.16,.13,.29,.28,.38,.46,.12,.21,.2,.45,.21,.71Z"/>
    <path class="cls-12" d="M46.57,19.94c.73,.96,1.16,2.78,1.1,4.61-.01,.34-.03,.66-.07,.98-.19,1.59-.77,3.01-1.26,3.98-.38-.02-3.87-1.11-4.41-4.14-.08-.42-.1-.84-.07-1.27,.05-.61,.21-1.21,.43-1.78,.11-.3,.24-.58,.4-.85,.39-.69,.86-1.26,1.36-1.66,.07-.06,.13-.11,.2-.15,.1,.09,.19,.17,.3,.23,.44,.3,1.04,.36,1.62,.2,.1-.02,.22-.06,.32-.11,.02-.01,.06-.02,.09-.04Z"/>
    <path class="cls-15" d="M43.34,17.38c.04,.08,.11,.21,.19,.37-.02,.03-.43,.51-.49,.91-.02,.11-.02,.32-.01,.48,0,.16,.04,.3,.1,.44,.03,.09,.07,.18,.12,.27,.02,.04,.04,.07,.07,.1,.02,.08,.03,.2-.03,.3-.04,.07-.2,.27-.93,.21-2.95-.26-4.47-1.47-4.47-1.47-1.1-.88-1.55-1.84-2.3-3.17-.94-1.67-1.38-3.25-1.59-4.37,.38-.06,4.39,.18,7.08,2.94,.09,.1,.21,.21,.21,.21,1.23,1.28,1.87,2.41,2.07,2.79Z"/>
    <path class="cls-11" d="M52.61,11.04c.02,.52-.02,1.31-.3,2.22-.31,.98-.76,1.63-1,1.97-1.36,1.93-3.49,2.89-4.29,3.21l-.04,.02c-.1,.03-.25,.09-.43,.15-.02-.02-.05-.04-.07-.07-.02-.02-.05-.04-.07-.06-.02-.01-.04-.03-.04-.04,0,0,.01,0,.03,0-.02-.07-.05-.15-.09-.23,0-.03-.03-.07-.05-.11-.14-.24-.32-.42-.53-.57-.17-.12-.36-.21-.57-.25-.2-.05-.4-.06-.6-.03h0c-.02-.12-.01-.22,0-.33,0,0,.03-.28,.18-.54,1.23-2.13,3.65-3.57,3.65-3.57,.93-.56,2.35-1.28,4.24-1.78Z"/>
    <path class="cls-15" d="M42.91,18.8s0,.07,.02,.11c.02,.08,.07,.16,.11,.23,0,.16,.04,.3,.1,.44,.03,.09,.07,.18,.12,.27,.02,.04,.04,.07,.07,.1,.03,.05,.07,.1,.11,.15v.02c.1,.09,.19,.18,.28,.24-.02,.06-.04,.11-.06,.15-.48,1.13-1.37,1.77-1.7,1.99-.16,.11-.95,.62-2.14,.79-1.04,.15-1.83-.04-2.46-.19-.74-.18-1.97-.59-3.28-1.59,.4-.54,1.41-1.78,2.75-2.25,.43-.15,1.25-.35,2.07-.47,.31-.05,.57-.07,.71-.09,.33-.03,1.05-.09,3.31,.1Z"/>
    <path class="cls-13" d="M54.5,22.14c-.13,.22-2,1.92-4.63,1.24-.04-.01-.09-.03-.13-.03-1.75-.5-3.25-1.86-3.9-3,.38-.29,.59-.72,.65-1.18,.03-.21,0-.43-.06-.65,0,0-.01-.02,0-.03-.02-.01-.04-.03-.04-.04,0,0,.01,0,.03,0,.18-.03,.39-.03,.62-.02,1.22,.07,2.98,.62,4.48,1.44,1.29,.72,2.31,1.59,3,2.26Z"/>
    <path class="cls-16" d="M40.53,11.86c-.06-1.37,.3-2.53,.66-3.34,.34,.05,3.31,.99,4.8,2.98,.24,.31,.44,.64,.58,1,0,0,.24,.59,.29,1.26,.13,1.61-1.17,3.39-1.25,3.5-.1-.09-.19-.13-.26-.11-.08,.02-.1,.11-.19,.15-.09,.04-.19,.01-.3-.05-.16,0-.35,.02-.56,.06-.24,.05-.45,.12-.6,.2-1.28-.3-2.47-2.17-2.94-4.16-.13-.5-.2-1-.22-1.49Z"/>
    <path class="cls-10" d="M46.26,18.12s.04,.07,.05,.11c.04,.07,.07,.15,.09,.23-.01,0-.03,0-.03,0,0,0,.02,.02,.04,.04,0,.01,0,.02,0,.03,.06,.22,.08,.44,.06,.65-.05,.46-.27,.88-.65,1.18-.01,.02-.04,.04-.06,.05-.04,.05-.1,.08-.15,.11-.05,.03-.09,.05-.14,.07-.03,.02-.06,.02-.08,.03-.09,.04-.18,.07-.27,.08-.49,.11-1.02,0-1.42-.31-.1-.06-.18-.15-.27-.24v-.02c-.05-.05-.09-.1-.12-.15-.02-.02-.05-.06-.07-.1-.05-.09-.09-.18-.12-.27-.06-.15-.09-.29-.1-.44-.04-.32,.02-.64,.16-.92,.03-.07,.06-.12,.1-.18,.02-.03,.04-.06,.06-.1,.14-.18,.31-.34,.52-.46,.04-.02,.07-.04,.11-.05,.01-.02,.04-.02,.05-.03,.16-.08,.34-.12,.51-.15h0c.2-.02,.4-.01,.6,.04,.21,.05,.4,.13,.57,.25,.22,.14,.4,.33,.53,.57Z"/>
    <path class="cls-15" d="M46.4,18.45l.02,.03s-.04-.03-.04-.04c0,0,.01,0,.03,0Z"/>
    <path class="cls-6" d="M33.84,26.7c-.66,2.12-3.13,2.87-3.43,2.95-.49-1.11-1.12-2.94-1.13-5.24,0-.4,0-.89,.03-1.38v-.02c.03-.51,.08-1.04,.19-1.45,.07-.27,.17-.51,.31-.67,.34,.26,.77,.39,1.21,.37,.17-.01,.34-.04,.49-.11,.21,.16,.43,.34,.64,.56,.72,.73,1.41,1.75,1.68,2.86h.01c.18,.7,.2,1.43-.02,2.13Z"/>
    <path class="cls-6" d="M29.04,20.14c-.75-.45-2.35,.81-3.12,1.71-1.34,1.55-1.44,3.38-1.46,4.07-.05,1.33,.27,2.39,.51,3.01,.89-.51,2.28-1.49,3.27-3.19,1.21-2.08,1.72-5.05,.8-5.6Z"/>
    <path class="cls-6" d="M29.07,19.09c-.02,.13-.02,.26-.02,.39,.01,.2,.05,.39,.13,.56-.06,.03-.12,.07-.18,.08h0c-.35,.13-.72,.16-1.1,.15h0c-.89-.07-1.78-.44-2.35-.82-.15-.09-.28-.19-.41-.32-1.49-1.24-2.12-3.52-1.72-5.97,1.69-.15,3.23,.11,4.44,.66,1.19,.52,2.06,1.34,2.43,2.35,.01,.04,.02,.08,.04,.13,.12,.36,.2,.8,.2,1.25-.75,.17-1.33,.78-1.44,1.54Z"/>
    <path class="cls-2" d="M29.21,8.74c-1.48,2.13-1.93,4.68-1.08,6.56,.51,1.12,1.69,2.47,2.74,2.2,1.21-.31,1.72-2.61,1.55-4.22-.31-2.95-2.98-4.42-3.21-4.54Z"/>
    <path class="cls-6" d="M35.16,11.52c-.49,.12-2.37,.65-3.37,2.43-.24,.44-1.21,2.17-.32,3.39,.69,.94,2.12,1.07,3.13,.71,1.34-.48,1.83-1.79,1.96-2.21,.44-1.46-.11-3.13-1.4-4.33Z"/>
    <path class="cls-6" d="M37.32,26.1c-.56-.1-2.17-.44-3.46-1.53h-.01c-.42-.37-.81-.82-1.11-1.38-.06-.1-.42-.79-.57-1.5-.07-.32-.09-.65-.02-.92,.2-.17,.37-.39,.46-.64,.29-.17,.67-.21,1.08-.17,.61,.06,1.29,.31,1.82,.57,.12,.06,.24,.12,.34,.18,.52,.3,1.81,1.04,2.11,2.58,.28,1.44-.48,2.56-.64,2.79Z"/>
    <path class="cls-6" d="M39.24,19.43c-.44,.4-1.11,.87-2.02,1.07-.57,.12-1.15,.13-1.71,.04-.67-.09-1.29-.3-1.82-.57-.37-.18-.68-.39-.92-.61,0-.03,0-.07,0-.11-.02-.37-.15-.71-.37-.99,.06-.06,.13-.12,.22-.17,.54-.33,1.61-.54,2.73-.46,.37,.02,.77,.07,1.13,.16,1.36,.35,2.28,1.16,2.75,1.64Z"/>
    <path class="cls-6" d="M29.4,20.46l-.06,.06c-.16,.19-.36,.36-.53,.49-.8,.65-1.97,1.17-3.22,1.25-.72,.04-1.48-.07-2.19-.4-.51-.23-.89-.52-1.14-.73,.48-.45,1.57-1.39,2.86-1.98,.94-.44,1.98-.68,2.98-.41,.16,.04,.59,.15,.96,.36-.02,.13-.02,.26-.02,.39,.01,.2,.05,.39,.13,.56,.05,.15,.12,.28,.21,.41Z"/>
    <path class="cls-7" d="M32.78,19.26s0,.08,0,.11c0,.27-.05,.53-.16,.77-.1,.25-.26,.47-.46,.64-.18,.16-.39,.29-.63,.36-.16,.07-.32,.1-.49,.11-.45,.03-.88-.11-1.21-.37-.17-.11-.31-.25-.42-.43-.1-.12-.17-.26-.21-.41-.08-.18-.12-.36-.13-.56,0-.13,0-.26,.02-.39,.11-.76,.69-1.37,1.44-1.54,.1-.03,.2-.04,.3-.05,.66-.04,1.26,.27,1.61,.77,.22,.28,.35,.62,.37,.99Z"/>
  </g>
</svg>