<?xml version="1.0" encoding="UTF-8"?>
<svg id="Layer_2" data-name="Layer 2" xmlns="http://www.w3.org/2000/svg" viewBox="0 0 48.84 46">
  <defs>
    <style>
      .cls-1 {
        fill: #ffde17;
      }

      .cls-1, .cls-2 {
        stroke-width: .97px;
      }

      .cls-1, .cls-2, .cls-3, .cls-4 {
        stroke: #231f20;
        stroke-miterlimit: 10;
      }

      .cls-2, .cls-3, .cls-4 {
        fill: #be1e2d;
      }

      .cls-4 {
        stroke-width: 1.05px;
      }
    </style>
  </defs>
  <g id="Layer_1-2" data-name="Layer 1">
    <path class="cls-3" d="M22.62,8.62c-.04,.16-.09,.33-.13,.49-1.32,.76-2.2,2.19-2.2,3.83,0,.51,.09,1,.25,1.46-1.6,.1-3.11,.16-4.51,.19h-.09c-2.35,.06-4.42,.03-6.14-.04-2.8-.1-4.61-.28-5.83-.55,0,0-.02,0-.03-.01-1.38-.32-2.01-.77-2.47-1.39C.05,10.72,.21,7.4,1.84,5.78c.73-.72,2.21-1.57,10.49,.12,4.35,.89,7.87,1.93,10.29,2.72Z"/>
    <path class="cls-4" d="M48.02,7.13c-.4,.99-1.5,2.48-10.5,5.01-3.24,.91-6.13,1.57-8.51,2.05,.12-.4,.18-.82,.18-1.25,0-2.19-1.58-4.01-3.66-4.38,4.21-2.38,7.88-4.15,10.69-5.42C42.32,.39,44.01,.2,45.39,.82c2.24,1,3.55,4.05,2.63,6.31Z"/>
    <path class="cls-1" d="M29.19,12.94c0,.43-.06,.85-.18,1.25-.07,.23-.15,.46-.26,.68-.71,1.49-2.24,2.53-4.01,2.53-1.55,0-2.92-.8-3.72-2.01-.2-.3-.36-.64-.48-.99-.16-.46-.25-.95-.25-1.46,0-1.64,.88-3.07,2.2-3.83,.66-.4,1.43-.62,2.25-.62,.27,0,.53,.02,.79,.07,2.08,.37,3.66,2.19,3.66,4.38Z"/>
    <path class="cls-2" d="M42.96,39.5c-2.76,.76-5.52,1.52-8.27,2.28-.3-2.87-.97-7.08-2.58-11.95-1.5-4.53-4.13-12.5-6.72-12.48-1.99,.02-4.84,4.76-8.2,28.03-2.63-.76-5.26-1.52-7.89-2.28-.26-1.29-.52-3.23-.32-5.56,.29-3.27,1.31-5.05,6.13-13.51,3.07-5.39,4.3-7.55,5.91-8.64,.8,1.21,2.17,2.01,3.72,2.01,1.77,0,3.3-1.04,4.01-2.53,7.48,2.4,11.24,11.94,12.06,14.02,.91,2.3,2.01,5.9,2.15,10.61Z"/>
  </g>
</svg>