<?xml version="1.0" encoding="UTF-8"?>
<svg id="Layer_2" data-name="Layer 2" xmlns="http://www.w3.org/2000/svg" viewBox="0 0 70.06 37.64">
  <defs>
    <style>
      .cls-1 {
        fill: #006838;
        stroke: #006838;
        stroke-width: 1px;
      }

      .cls-1, .cls-2 {
        stroke-miterlimit: 10;
      }

      .cls-3 {
        fill: #be1e2d;
      }

      .cls-2 {
        fill: #231f20;
        stroke: #231f20;
      }
    </style>
  </defs>
  <g id="Layer_1-2" data-name="Layer 1">
    <path class="cls-1" d="M36.48,37.11C16.97,37.95,.15,21.65,.51,1.62c1,.05,2.01,.08,3.03,.12,.5,6.17,2.63,11.95,6.04,16.78,.01,.02,.02,.04,.04,.05,3.24,4.59,7.63,8.31,12.84,10.71,15.27,7.02,29.34-1.21,30.75-2.07,2.61-1.58,4.8-3.41,6.63-5.35,.05-.06,.11-.13,.17-.19C67.75,13.37,69.1,3.02,69.33,.1l.16,1.92c1.2,19.39-13.99,34.28-33.01,35.09Z"/>
    <path class="cls-3" d="M58.75,1.03c1,3.86,.48,4.3-.31,6.05-.43,.97-1.39-.15-3.06,.26-2.01,.49-2.38,2.56-3.73,2.37-1.05-.14-1.58-1.27-2.67-1.35-1.11-.08-1.32,.55-2.61,.71-1.52,.2-2.83-1.29-2.93-1.48-.95-1.61,.28-4.51,.53-6.02-3.11,.11-6.28,.19-9.5,.23-10.77,.14-21-.09-30.62-.6,.38,6.34,2.41,12.31,5.73,17.32,.01,.02,.02,.04,.04,.05,3.11,4.69,7.34,8.53,12.4,11.05,14.94,7.43,28.97-.69,30.38-1.55,2.99-1.8,5.44-3.94,7.44-6.21,.05-.06,.11-.13,.17-.19,7.97-9.21,8.77-20.59,8.83-21.67l-10.09,1.03Zm-2,13.6c.04-1.81,1.14-4.7,1.84-4.59,.52,.07,1.37,2.06,1.47,3.79-.01,.01,0,.02,0,.03,.06,.93-.11,1.78-.67,2.22-.56,.42-1.88,.25-2.32-.19-.24-.24-.33-.68-.32-1.24v-.02Zm-10.02,.23c.13-1.11,.49-1.94,1.01-2.04,.82-.17,2.23,1.65,2.69,2.3,.85,1.22,1.52,2.75,1.67,4.01,.01,.03,.01,.06,.01,.09,.1,.9-.07,1.66-.62,2.06-.95,.68-2.35,.75-3.35-.41-1.19-1.4-1.61-3.91-1.45-5.76,0-.08,.03-.17,.04-.25Zm-3.66,5.55c.08,.04,.16,.1,.23,.18,.56,.65,.68,2.58,.7,3.3,.03,2.61-.92,5.64-2.53,5.67h-.02c-1.17-.01-2.36-.79-2.51-2.33-.33-3.09,2.79-7.42,4.13-6.82Zm-8.1-9.73c.32-.1,.69,.08,1.04,.41,.05,.04,.1,.09,.16,.14,.09,.08,.17,.17,.25,.26,.41,.47,.77,1.05,.99,1.47,1.01,1.86,1.64,4.78,.95,5.58-.04,.05-.09,.1-.15,.13-.74,.45-2.52,.84-3.33-.32-1.6-2.27-.92-7.33,.09-7.67Zm-5.32,10.64c1.52,1.07,3.1,3.51,2.89,5.66-.16,1.67-1.21,2.67-2.68,2.58-.02,0-.04,0-.06,0-.04,0-.07-.01-.1-.02-1.41-.16-2.26-1.41-2.51-2.03-.9-2.22-.66-6.05,.62-6.64,.48-.22,1.13-.03,1.8,.43,.02,.01,.03,.01,.04,.03Zm-3.14-12.95c.45-.06,.88,.3,1.22,.85,.01,0,.01,.01,.01,.01,.36,.57,.63,1.35,.76,2.1,.26,1.49,1.05,2.71-.14,4.38-.44,.62-2.21,.57-3.1-.2h-.01c-.25-.21-.42-.47-.49-.79-.37-1.73,.77-6.23,1.75-6.35Zm-7.47,4.25c.62-.13,1.21,.69,1.74,1.48,.11,.15,.22,.3,.32,.45,.06,.08,.12,.17,.17,.25,.05,.06,.1,.13,.14,.19,2.68,3.87-.64,6.54-1.88,6.51-.37-.01-.76-.21-1.11-.55t-.02-.02c-.48-.48-.88-1.21-.98-2-.29-2.13,.54-6.08,1.62-6.31Zm-6.54-5.28c.47-.03,1.51,1.39,2.03,2.89,.02,.04,.03,.08,.05,.13,.35,1.03,.43,2.08-.1,2.71-.44,.53-1.77,.65-2.29,.32-.16-.11-.29-.29-.39-.54-.01-.01-.01-.02-.01-.03-.6-1.57-.08-5.44,.71-5.48Z"/>
    <path class="cls-2" d="M14.64,13.45c-.45,.52-1.8,.64-2.33,.31-1.19-.74-.62-5.88,.32-5.93,.81-.05,3.36,4.09,2.01,5.62Z"/>
    <path class="cls-2" d="M19.76,21.72c-.91-.02-1.96-1.2-2.14-2.52-.3-2.09,.55-5.97,1.64-6.19,.82-.17,1.6,1.26,2.27,2.14,2.97,3.89-.49,6.6-1.77,6.57Z"/>
    <path class="cls-2" d="M28.72,16.04c-.57,.77-3.33,.49-3.65-.97-.38-1.7,.78-6.11,1.77-6.23,.94-.12,1.76,1.44,2.02,2.9,.26,1.47,1.07,2.66-.14,4.3Z"/>
    <path class="cls-2" d="M38.29,18.59c-.75,.44-2.55,.83-3.38-.31-1.62-2.23-.93-7.19,.1-7.52,.85-.27,1.98,1.34,2.47,2.23,1.09,1.94,1.75,5.06,.81,5.6Z"/>
    <path class="cls-2" d="M32.96,27.09c-.16,1.64-1.23,2.62-2.72,2.53-1.52-.09-2.44-1.39-2.71-2.02-.91-2.18-.67-5.93,.63-6.51,1.6-.71,5.11,2.95,4.8,6Z"/>
    <path class="cls-2" d="M44.33,23.91c.03,2.57-.95,5.56-2.59,5.56-1.19-.01-2.39-.77-2.55-2.28-.33-3.03,2.84-7.28,4.19-6.69,.78,.34,.93,2.62,.95,3.41Z"/>
    <path class="cls-2" d="M51.52,21.5c-.97,.67-2.39,.74-3.4-.4-2.01-2.29-1.85-7.6-.41-7.89,.84-.17,2.27,1.61,2.73,2.25,1.51,2.08,2.43,5.1,1.08,6.04Z"/>
    <path class="cls-2" d="M59.4,16.4c-.56,.41-1.9,.25-2.35-.18-1.01-.98,.61-5.88,1.54-5.74,.81,.12,2.44,4.7,.81,5.92Z"/>
  </g>
</svg>